<?xml version="1.0" encoding="UTF-8" standalone="no"?>
<!-- Created with Inkscape (http://www.inkscape.org/) -->

<svg
   xmlns:dc="http://purl.org/dc/elements/1.1/"
   xmlns:cc="http://creativecommons.org/ns#"
   xmlns:rdf="http://www.w3.org/1999/02/22-rdf-syntax-ns#"
   xmlns:svg="http://www.w3.org/2000/svg"
   xmlns="http://www.w3.org/2000/svg"
   xmlns:sodipodi="http://sodipodi.sourceforge.net/DTD/sodipodi-0.dtd"
   xmlns:inkscape="http://www.inkscape.org/namespaces/inkscape"
   id="svg2985"
   version="1.1"
   inkscape:version="0.48.4 r9939"
   width="128"
   height="128"
   xml:space="preserve"
   docname="nuget_path.svg"
   sodipodi:docname="nuget_path.svg"><title
     id="title3379">NuGet Logo</title><sodipodi:namedview
     pagecolor="#ffffff"
     bordercolor="#666666"
     borderopacity="1"
     objecttolerance="10"
     gridtolerance="10"
     guidetolerance="10"
     inkscape:pageopacity="0"
     inkscape:pageshadow="2"
     inkscape:window-width="1920"
     inkscape:window-height="1137"
     id="namedview3377"
     showgrid="false"
     inkscape:zoom="4.17193"
     inkscape:cx="79.744028"
     inkscape:cy="74.796873"
     inkscape:window-x="-8"
     inkscape:window-y="-8"
     inkscape:window-maximized="1"
     inkscape:current-layer="g2993" /><metadata
     id="metadata2991"><rdf:RDF><cc:Work
         rdf:about=""><dc:format>image/svg+xml</dc:format><dc:type
           rdf:resource="http://purl.org/dc/dcmitype/StillImage" /><dc:title>NuGet Logo</dc:title><dc:date>11/18/2013</dc:date><dc:creator><cc:Agent><dc:title>NuGet Team</dc:title></cc:Agent></dc:creator><dc:rights><cc:Agent><dc:title>Copyright Outercurve Foundation</dc:title></cc:Agent></dc:rights></cc:Work></rdf:RDF></metadata><defs
     id="defs2989">
   </defs><g
     id="g2993"
     inkscape:groupmode="layer"
     inkscape:label="nuget_128"
     transform="matrix(1.25,0,0,-1.25,-3.3190875,132.88281)"><path
       inkscape:connector-curvature="0"
       style="fill:#000000;stroke:none"
       d="m 13.75527,102.30625 c -4.627969,0 -8.375,-3.74703 -8.375,-8.375 0,-4.628781 3.747031,-8.4 8.375,-8.4 4.62878,0 8.375,3.771219 8.375,8.4 0,4.62797 -3.74622,8.375 -8.375,8.375 z m 32.8,-11.825 c -14.785995,0 -26.775,-12.00996 -26.775,-26.8 l 0,-29.000003 c 0,-14.78924 11.989005,-26.7750005 26.775,-26.7750005 l 29,0 c 14.785992,0 26.775,11.9857605 26.775,26.7750005 l 0,29.000003 c 0,14.79004 -11.989008,26.8 -26.775,26.8 l -29,0 z m -5.5,-13.775 c 5.580309,0 10.125,-4.51888 10.125,-10.1 0,-5.58031 -4.544691,-10.1 -10.125,-10.1 -5.58193,0 -10.1,4.51969 -10.1,10.1 0,5.58112 4.51807,10.1 10.1,10.1 z m 33.125,-24.5 c 9.61904,0 17.4,-7.80839 17.4,-17.425003 0,-9.617424 -7.78096,-17.4 -17.4,-17.4 -9.616612,0 -17.425,7.782576 -17.425,17.4 0,9.616613 7.808388,17.425003 17.425,17.425003 z"
       id="path3013" /></g></svg>