<?xml version="1.0" encoding="utf-8"?>
<!-- Generator: Adobe Illustrator 27.3.1, SVG Export Plug-In . SVG Version: 6.00 Build 0)  -->
<svg version="1.2" baseProfile="tiny" id="Layer_1" xmlns="http://www.w3.org/2000/svg" xmlns:xlink="http://www.w3.org/1999/xlink"
	 x="0px" y="0px" viewBox="0 0 685 685" overflow="visible" xml:space="preserve">
<g id="nuget">
	<g id="Global_x2F_Logo" transform="translate(0.000000, 6.000000)">
		<path id="Fill-12" fill-rule="evenodd" fill="#004880" d="M462.6,540.6c-46.7,0-84.7-37.9-84.7-84.7c0-46.7,37.9-84.7,84.7-84.7
			s84.7,37.9,84.7,84.7C547.3,502.7,509.4,540.6,462.6,540.6 M293.8,346.6c-29.2,0-52.9-23.7-52.9-52.9c0-29.2,23.7-52.9,52.9-52.9
			s52.9,23.7,52.9,52.9C346.7,322.9,323,346.6,293.8,346.6 M466.4,181.4H325.1c-72,0-130.4,58.4-130.4,130.4v141.3
			c0,72,58.4,130.4,130.4,130.4h141.3c72,0,130.4-58.4,130.4-130.4V311.9C596.8,239.8,538.4,181.4,466.4,181.4"/>
		<path fill-rule="evenodd" fill="#004880" d="M172.9,131.8c0,23.4-19,42.3-42.3,42.3c-23.4,0-42.3-18.9-42.3-42.3
			c0-23.4,18.9-42.3,42.3-42.3C153.9,89.5,172.9,108.4,172.9,131.8"/>
	</g>
</g>
</svg>
